0
SECTION
2
ENTITIES
0
3DFACE
8
0
10
-833.89734
20
-379.27832
30
-547.9294
11
-833.89734
21
-284.8816
31
-602.4294
12
-793.89734
22
-319.52258
32
-662.4294
13
-793.8972
23
-319.5225
33
-662.42926
0
3DFACE
8
0
10
-793.89734
20
-319.52258
30
-662.4294
11
-793.89734
21
-413.91937
31
-607.9294
12
-833.89734
22
-379.27832
32
-547.9294
13
-833.8972
23
-379.27823
33
-547.92926
0
3DFACE
8
0
10
188.01266
20
10.118393
30
-91.47443
11
188.01266
21
-84.27837
31
-36.974426
12
228.01266
22
-118.91939
32
-96.97443
13
228.01277
23
-118.91929
33
-96.97433
0
3DFACE
8
0
10
228.01266
20
-118.91939
30
-96.97443
11
228.01266
21
-24.522629
31
-151.47443
12
188.01266
22
10.118393
32
-91.47443
13
188.01277
23
10.118493
33
-91.47433
0
3DFACE
8
0
10
-793.89734
20
-413.91937
30
-607.9294
11
-793.89734
21
-319.52258
31
-662.4294
12
228.01266
22
-24.522629
32
-151.47443
13
228.01277
23
-24.52253
33
-151.47432
0
3DFACE
8
0
10
228.01266
20
-24.522629
30
-151.47443
11
228.01266
21
-118.91939
31
-96.97443
12
-793.89734
22
-413.91937
32
-607.9294
13
-793.8972
23
-413.91928
33
-607.92926
0
3DFACE
8
0
10
-833.89734
20
-284.8816
30
-602.4294
11
-833.89734
21
-379.27832
31
-547.9294
12
188.01266
22
-84.27837
32
-36.974426
13
188.01277
23
-84.278275
33
-36.974327
0
3DFACE
8
0
10
188.01266
20
-84.27837
30
-36.974426
11
188.01266
21
10.118393
31
-91.47443
12
-833.89734
22
-284.8816
32
-602.4294
13
-833.8972
23
-284.8815
33
-602.42926
0
3DFACE
8
0
10
-793.89734
20
-413.91937
30
-607.9294
11
228.01266
21
-118.91939
31
-96.97443
12
188.01266
22
-84.27837
32
-36.974426
13
188.01277
23
-84.278275
33
-36.974327
0
3DFACE
8
0
10
188.01266
20
-84.27837
30
-36.974426
11
-833.89734
21
-379.27832
31
-547.9294
12
-793.89734
22
-413.91937
32
-607.9294
13
-793.8972
23
-413.91928
33
-607.92926
0
3DFACE
8
0
10
-833.89734
20
-284.8816
30
-602.4294
11
188.01266
21
10.118393
31
-91.47443
12
228.01266
22
-24.522629
32
-151.47443
13
228.01277
23
-24.52253
33
-151.47432
0
3DFACE
8
0
10
228.01266
20
-24.522629
30
-151.47443
11
-793.89734
21
-319.52258
31
-662.4294
12
-833.89734
22
-284.8816
32
-602.4294
13
-833.8972
23
-284.8815
33
-602.42926
0
3DFACE
8
0
10
-793.89734
20
-413.91934
30
-607.9294
11
-793.89734
21
-319.52258
31
-662.4294
12
-753.89734
22
-354.1636
32
-722.4294
13
-753.8972
23
-354.1635
33
-722.42926
0
3DFACE
8
0
10
-753.89734
20
-354.1636
30
-722.4294
11
-753.89734
21
-448.56036
31
-667.9294
12
-793.89734
22
-413.91934
32
-607.9294
13
-793.8972
23
-413.91925
33
-607.92926
0
3DFACE
8
0
10
228.01266
20
-24.522614
30
-151.47443
11
228.01266
21
-118.91938
31
-96.97443
12
268.01266
22
-153.5604
32
-156.97443
13
268.01276
23
-153.56029
33
-156.97432
0
3DFACE
8
0
10
268.01266
20
-153.5604
30
-156.97443
11
268.01266
21
-59.163635
31
-211.47443
12
228.01266
22
-24.522614
32
-151.47443
13
228.01277
23
-24.522514
33
-151.47432
0
3DFACE
8
0
10
-753.89734
20
-448.56036
30
-667.9294
11
-753.89734
21
-354.1636
31
-722.4294
12
268.01266
22
-59.163635
32
-211.47443
13
268.01276
23
-59.163536
33
-211.47432
0
3DFACE
8
0
10
268.01266
20
-59.163635
30
-211.47443
11
268.01266
21
-153.5604
31
-156.97443
12
-753.89734
22
-448.56036
32
-667.9294
13
-753.8972
23
-448.56027
33
-667.92926
0
3DFACE
8
0
10
-793.89734
20
-319.52258
30
-662.4294
11
-793.89734
21
-413.91934
31
-607.9294
12
228.01266
22
-118.91938
32
-96.97443
13
228.01277
23
-118.91928
33
-96.97433
0
3DFACE
8
0
10
228.01266
20
-118.91938
30
-96.97443
11
228.01266
21
-24.522614
31
-151.47443
12
-793.89734
22
-319.52258
32
-662.4294
13
-793.8972
23
-319.5225
33
-662.42926
0
3DFACE
8
0
10
-753.89734
20
-448.56036
30
-667.9294
11
268.01266
21
-153.5604
31
-156.97443
12
228.01266
22
-118.91938
32
-96.97443
13
228.01277
23
-118.91928
33
-96.97433
0
3DFACE
8
0
10
228.01266
20
-118.91938
30
-96.97443
11
-793.89734
21
-413.91934
31
-607.9294
12
-753.89734
22
-448.56036
32
-667.9294
13
-753.8972
23
-448.56027
33
-667.92926
0
3DFACE
8
0
10
-793.89734
20
-319.52258
30
-662.4294
11
228.01266
21
-24.522614
31
-151.47443
12
268.01266
22
-59.163635
32
-211.47443
13
268.01276
23
-59.163536
33
-211.47432
0
3DFACE
8
0
10
268.01266
20
-59.163635
30
-211.47443
11
-753.89734
21
-354.1636
31
-722.4294
12
-793.89734
22
-319.52258
32
-662.4294
13
-793.8972
23
-319.5225
33
-662.42926
0
LINE
8
0
10
-833.89734
20
-379.27832
30
-547.9294
11
-833.89734
21
-284.8816
31
-602.4294
0
LINE
8
0
10
-833.89734
20
-284.8816
30
-602.4294
11
-793.89734
21
-319.52258
31
-662.4294
0
LINE
8
0
10
-793.89734
20
-319.52258
30
-662.4294
11
-793.89734
21
-413.91937
31
-607.9294
0
LINE
8
0
10
-793.89734
20
-413.91937
30
-607.9294
11
-833.89734
21
-379.27832
31
-547.9294
0
LINE
8
0
10
188.01266
20
10.118393
30
-91.47443
11
188.01266
21
-84.27837
31
-36.974426
0
LINE
8
0
10
188.01266
20
-84.27837
30
-36.974426
11
228.01266
21
-118.91939
31
-96.97443
0
LINE
8
0
10
228.01266
20
-118.91939
30
-96.97443
11
228.01266
21
-24.522629
31
-151.47443
0
LINE
8
0
10
228.01266
20
-24.522629
30
-151.47443
11
188.01266
21
10.118393
31
-91.47443
0
LINE
8
0
10
-793.89734
20
-413.91937
30
-607.9294
11
-793.89734
21
-319.52258
31
-662.4294
0
LINE
8
0
10
-793.89734
20
-319.52258
30
-662.4294
11
228.01266
21
-24.522629
31
-151.47443
0
LINE
8
0
10
228.01266
20
-24.522629
30
-151.47443
11
228.01266
21
-118.91939
31
-96.97443
0
LINE
8
0
10
228.01266
20
-118.91939
30
-96.97443
11
-793.89734
21
-413.91937
31
-607.9294
0
LINE
8
0
10
-833.89734
20
-284.8816
30
-602.4294
11
-833.89734
21
-379.27832
31
-547.9294
0
LINE
8
0
10
-833.89734
20
-379.27832
30
-547.9294
11
188.01266
21
-84.27837
31
-36.974426
0
LINE
8
0
10
188.01266
20
-84.27837
30
-36.974426
11
188.01266
21
10.118393
31
-91.47443
0
LINE
8
0
10
188.01266
20
10.118393
30
-91.47443
11
-833.89734
21
-284.8816
31
-602.4294
0
LINE
8
0
10
-793.89734
20
-413.91937
30
-607.9294
11
228.01266
21
-118.91939
31
-96.97443
0
LINE
8
0
10
228.01266
20
-118.91939
30
-96.97443
11
188.01266
21
-84.27837
31
-36.974426
0
LINE
8
0
10
188.01266
20
-84.27837
30
-36.974426
11
-833.89734
21
-379.27832
31
-547.9294
0
LINE
8
0
10
-833.89734
20
-379.27832
30
-547.9294
11
-793.89734
21
-413.91937
31
-607.9294
0
LINE
8
0
10
-833.89734
20
-284.8816
30
-602.4294
11
188.01266
21
10.118393
31
-91.47443
0
LINE
8
0
10
188.01266
20
10.118393
30
-91.47443
11
228.01266
21
-24.522629
31
-151.47443
0
LINE
8
0
10
228.01266
20
-24.522629
30
-151.47443
11
-793.89734
21
-319.52258
31
-662.4294
0
LINE
8
0
10
-793.89734
20
-319.52258
30
-662.4294
11
-833.89734
21
-284.8816
31
-602.4294
0
LINE
8
0
10
-793.89734
20
-413.91934
30
-607.9294
11
-793.89734
21
-319.52258
31
-662.4294
0
LINE
8
0
10
-793.89734
20
-319.52258
30
-662.4294
11
-753.89734
21
-354.1636
31
-722.4294
0
LINE
8
0
10
-753.89734
20
-354.1636
30
-722.4294
11
-753.89734
21
-448.56036
31
-667.9294
0
LINE
8
0
10
-753.89734
20
-448.56036
30
-667.9294
11
-793.89734
21
-413.91934
31
-607.9294
0
LINE
8
0
10
228.01266
20
-24.522614
30
-151.47443
11
228.01266
21
-118.91938
31
-96.97443
0
LINE
8
0
10
228.01266
20
-118.91938
30
-96.97443
11
268.01266
21
-153.5604
31
-156.97443
0
LINE
8
0
10
268.01266
20
-153.5604
30
-156.97443
11
268.01266
21
-59.163635
31
-211.47443
0
LINE
8
0
10
268.01266
20
-59.163635
30
-211.47443
11
228.01266
21
-24.522614
31
-151.47443
0
LINE
8
0
10
-753.89734
20
-448.56036
30
-667.9294
11
-753.89734
21
-354.1636
31
-722.4294
0
LINE
8
0
10
-753.89734
20
-354.1636
30
-722.4294
11
268.01266
21
-59.163635
31
-211.47443
0
LINE
8
0
10
268.01266
20
-59.163635
30
-211.47443
11
268.01266
21
-153.5604
31
-156.97443
0
LINE
8
0
10
268.01266
20
-153.5604
30
-156.97443
11
-753.89734
21
-448.56036
31
-667.9294
0
LINE
8
0
10
-793.89734
20
-319.52258
30
-662.4294
11
-793.89734
21
-413.91934
31
-607.9294
0
LINE
8
0
10
-793.89734
20
-413.91934
30
-607.9294
11
228.01266
21
-118.91938
31
-96.97443
0
LINE
8
0
10
228.01266
20
-118.91938
30
-96.97443
11
228.01266
21
-24.522614
31
-151.47443
0
LINE
8
0
10
228.01266
20
-24.522614
30
-151.47443
11
-793.89734
21
-319.52258
31
-662.4294
0
LINE
8
0
10
-753.89734
20
-448.56036
30
-667.9294
11
268.01266
21
-153.5604
31
-156.97443
0
LINE
8
0
10
268.01266
20
-153.5604
30
-156.97443
11
228.01266
21
-118.91938
31
-96.97443
0
LINE
8
0
10
228.01266
20
-118.91938
30
-96.97443
11
-793.89734
21
-413.91934
31
-607.9294
0
LINE
8
0
10
-793.89734
20
-413.91934
30
-607.9294
11
-753.89734
21
-448.56036
31
-667.9294
0
LINE
8
0
10
-793.89734
20
-319.52258
30
-662.4294
11
228.01266
21
-24.522614
31
-151.47443
0
LINE
8
0
10
228.01266
20
-24.522614
30
-151.47443
11
268.01266
21
-59.163635
31
-211.47443
0
LINE
8
0
10
268.01266
20
-59.163635
30
-211.47443
11
-753.89734
21
-354.1636
31
-722.4294
0
LINE
8
0
10
-753.89734
20
-354.1636
30
-722.4294
11
-793.89734
21
-319.52258
31
-662.4294
0
ENDSEC
0
EOF
