0
SECTION
2
ENTITIES
0
3DFACE
8
0
10
-837.64734
20
-369.53555
30
-546.0544
11
-837.64734
21
-288.12915
31
-593.0544
12
-797.64734
22
-322.77017
32
-653.0544
13
-797.6472
23
-322.77008
33
-653.05426
0
3DFACE
8
0
10
-797.64734
20
-322.77017
30
-653.0544
11
-797.64734
21
-404.17657
31
-606.0544
12
-837.64734
22
-369.53555
32
-546.0544
13
-837.6472
23
-369.53546
33
-546.05426
0
3DFACE
8
0
10
184.26266
20
6.870804
30
-82.09943
11
184.26266
21
-74.535576
31
-35.099426
12
224.26266
22
-109.1766
32
-95.09943
13
224.26277
23
-109.1765
33
-95.09933
0
3DFACE
8
0
10
224.26266
20
-109.1766
30
-95.09943
11
224.26266
21
-27.770203
31
-142.09943
12
184.26266
22
6.870804
32
-82.09943
13
184.26277
23
6.870904
33
-82.09933
0
3DFACE
8
0
10
-797.64734
20
-404.17657
30
-606.0544
11
-797.64734
21
-322.77017
31
-653.0544
12
224.26266
22
-27.770203
32
-142.09943
13
224.26277
23
-27.770103
33
-142.09932
0
3DFACE
8
0
10
224.26266
20
-27.770203
30
-142.09943
11
224.26266
21
-109.1766
31
-95.09943
12
-797.64734
22
-404.17657
32
-606.0544
13
-797.6472
23
-404.17648
33
-606.05426
0
3DFACE
8
0
10
-837.64734
20
-288.12915
30
-593.0544
11
-837.64734
21
-369.53555
31
-546.0544
12
184.26266
22
-74.535576
32
-35.099426
13
184.26277
23
-74.53548
33
-35.099327
0
3DFACE
8
0
10
184.26266
20
-74.535576
30
-35.099426
11
184.26266
21
6.870804
31
-82.09943
12
-837.64734
22
-288.12915
32
-593.0544
13
-837.6472
23
-288.12906
33
-593.05426
0
3DFACE
8
0
10
-797.64734
20
-404.17657
30
-606.0544
11
224.26266
21
-109.1766
31
-95.09943
12
184.26266
22
-74.535576
32
-35.099426
13
184.26277
23
-74.53548
33
-35.099327
0
3DFACE
8
0
10
184.26266
20
-74.535576
30
-35.099426
11
-837.64734
21
-369.53555
31
-546.0544
12
-797.64734
22
-404.17657
32
-606.0544
13
-797.6472
23
-404.17648
33
-606.05426
0
3DFACE
8
0
10
-837.64734
20
-288.12915
30
-593.0544
11
184.26266
21
6.870804
31
-82.09943
12
224.26266
22
-27.770203
32
-142.09943
13
224.26277
23
-27.770103
33
-142.09932
0
3DFACE
8
0
10
224.26266
20
-27.770203
30
-142.09943
11
-797.64734
21
-322.77017
31
-653.0544
12
-837.64734
22
-288.12915
32
-593.0544
13
-837.6472
23
-288.12906
33
-593.05426
0
3DFACE
8
0
10
-797.64734
20
-404.17657
30
-606.0544
11
-797.64734
21
-322.77017
31
-653.0544
12
-757.64734
22
-357.4112
32
-713.0544
13
-757.6472
23
-357.4111
33
-713.05426
0
3DFACE
8
0
10
-757.64734
20
-357.4112
30
-713.0544
11
-757.64734
21
-438.81757
31
-666.0544
12
-797.64734
22
-404.17657
32
-606.0544
13
-797.6472
23
-404.17648
33
-606.05426
0
3DFACE
8
0
10
224.26266
20
-27.770218
30
-142.09943
11
224.26266
21
-109.1766
31
-95.09943
12
264.26266
22
-143.81763
32
-155.09943
13
264.26276
23
-143.81752
33
-155.09932
0
3DFACE
8
0
10
264.26266
20
-143.81763
30
-155.09943
11
264.26266
21
-62.411224
31
-202.09943
12
224.26266
22
-27.770218
32
-142.09943
13
224.26277
23
-27.770119
33
-142.09932
0
3DFACE
8
0
10
-757.64734
20
-438.81757
30
-666.0544
11
-757.64734
21
-357.4112
31
-713.0544
12
264.26266
22
-62.411224
32
-202.09943
13
264.26276
23
-62.411125
33
-202.09932
0
3DFACE
8
0
10
264.26266
20
-62.411224
30
-202.09943
11
264.26266
21
-143.81763
31
-155.09943
12
-757.64734
22
-438.81757
32
-666.0544
13
-757.6472
23
-438.81747
33
-666.05426
0
3DFACE
8
0
10
-797.64734
20
-322.77017
30
-653.0544
11
-797.64734
21
-404.17657
31
-606.0544
12
224.26266
22
-109.1766
32
-95.09943
13
224.26277
23
-109.1765
33
-95.09933
0
3DFACE
8
0
10
224.26266
20
-109.1766
30
-95.09943
11
224.26266
21
-27.770218
31
-142.09943
12
-797.64734
22
-322.77017
32
-653.0544
13
-797.6472
23
-322.77008
33
-653.05426
0
3DFACE
8
0
10
-757.64734
20
-438.81757
30
-666.0544
11
264.26266
21
-143.81763
31
-155.09943
12
224.26266
22
-109.1766
32
-95.09943
13
224.26277
23
-109.1765
33
-95.09933
0
3DFACE
8
0
10
224.26266
20
-109.1766
30
-95.09943
11
-797.64734
21
-404.17657
31
-606.0544
12
-757.64734
22
-438.81757
32
-666.0544
13
-757.6472
23
-438.81747
33
-666.05426
0
3DFACE
8
0
10
-797.64734
20
-322.77017
30
-653.0544
11
224.26266
21
-27.770218
31
-142.09943
12
264.26266
22
-62.411224
32
-202.09943
13
264.26276
23
-62.411125
33
-202.09932
0
3DFACE
8
0
10
264.26266
20
-62.411224
30
-202.09943
11
-757.64734
21
-357.4112
31
-713.0544
12
-797.64734
22
-322.77017
32
-653.0544
13
-797.6472
23
-322.77008
33
-653.05426
0
LINE
8
0
10
-837.64734
20
-369.53555
30
-546.0544
11
-837.64734
21
-288.12915
31
-593.0544
0
LINE
8
0
10
-837.64734
20
-288.12915
30
-593.0544
11
-797.64734
21
-322.77017
31
-653.0544
0
LINE
8
0
10
-797.64734
20
-322.77017
30
-653.0544
11
-797.64734
21
-404.17657
31
-606.0544
0
LINE
8
0
10
-797.64734
20
-404.17657
30
-606.0544
11
-837.64734
21
-369.53555
31
-546.0544
0
LINE
8
0
10
184.26266
20
6.870804
30
-82.09943
11
184.26266
21
-74.535576
31
-35.099426
0
LINE
8
0
10
184.26266
20
-74.535576
30
-35.099426
11
224.26266
21
-109.1766
31
-95.09943
0
LINE
8
0
10
224.26266
20
-109.1766
30
-95.09943
11
224.26266
21
-27.770203
31
-142.09943
0
LINE
8
0
10
224.26266
20
-27.770203
30
-142.09943
11
184.26266
21
6.870804
31
-82.09943
0
LINE
8
0
10
-797.64734
20
-404.17657
30
-606.0544
11
-797.64734
21
-322.77017
31
-653.0544
0
LINE
8
0
10
-797.64734
20
-322.77017
30
-653.0544
11
224.26266
21
-27.770203
31
-142.09943
0
LINE
8
0
10
224.26266
20
-27.770203
30
-142.09943
11
224.26266
21
-109.1766
31
-95.09943
0
LINE
8
0
10
224.26266
20
-109.1766
30
-95.09943
11
-797.64734
21
-404.17657
31
-606.0544
0
LINE
8
0
10
-837.64734
20
-288.12915
30
-593.0544
11
-837.64734
21
-369.53555
31
-546.0544
0
LINE
8
0
10
-837.64734
20
-369.53555
30
-546.0544
11
184.26266
21
-74.535576
31
-35.099426
0
LINE
8
0
10
184.26266
20
-74.535576
30
-35.099426
11
184.26266
21
6.870804
31
-82.09943
0
LINE
8
0
10
184.26266
20
6.870804
30
-82.09943
11
-837.64734
21
-288.12915
31
-593.0544
0
LINE
8
0
10
-797.64734
20
-404.17657
30
-606.0544
11
224.26266
21
-109.1766
31
-95.09943
0
LINE
8
0
10
224.26266
20
-109.1766
30
-95.09943
11
184.26266
21
-74.535576
31
-35.099426
0
LINE
8
0
10
184.26266
20
-74.535576
30
-35.099426
11
-837.64734
21
-369.53555
31
-546.0544
0
LINE
8
0
10
-837.64734
20
-369.53555
30
-546.0544
11
-797.64734
21
-404.17657
31
-606.0544
0
LINE
8
0
10
-837.64734
20
-288.12915
30
-593.0544
11
184.26266
21
6.870804
31
-82.09943
0
LINE
8
0
10
184.26266
20
6.870804
30
-82.09943
11
224.26266
21
-27.770203
31
-142.09943
0
LINE
8
0
10
224.26266
20
-27.770203
30
-142.09943
11
-797.64734
21
-322.77017
31
-653.0544
0
LINE
8
0
10
-797.64734
20
-322.77017
30
-653.0544
11
-837.64734
21
-288.12915
31
-593.0544
0
LINE
8
0
10
-797.64734
20
-404.17657
30
-606.0544
11
-797.64734
21
-322.77017
31
-653.0544
0
LINE
8
0
10
-797.64734
20
-322.77017
30
-653.0544
11
-757.64734
21
-357.4112
31
-713.0544
0
LINE
8
0
10
-757.64734
20
-357.4112
30
-713.0544
11
-757.64734
21
-438.81757
31
-666.0544
0
LINE
8
0
10
-757.64734
20
-438.81757
30
-666.0544
11
-797.64734
21
-404.17657
31
-606.0544
0
LINE
8
0
10
224.26266
20
-27.770218
30
-142.09943
11
224.26266
21
-109.1766
31
-95.09943
0
LINE
8
0
10
224.26266
20
-109.1766
30
-95.09943
11
264.26266
21
-143.81763
31
-155.09943
0
LINE
8
0
10
264.26266
20
-143.81763
30
-155.09943
11
264.26266
21
-62.411224
31
-202.09943
0
LINE
8
0
10
264.26266
20
-62.411224
30
-202.09943
11
224.26266
21
-27.770218
31
-142.09943
0
LINE
8
0
10
-757.64734
20
-438.81757
30
-666.0544
11
-757.64734
21
-357.4112
31
-713.0544
0
LINE
8
0
10
-757.64734
20
-357.4112
30
-713.0544
11
264.26266
21
-62.411224
31
-202.09943
0
LINE
8
0
10
264.26266
20
-62.411224
30
-202.09943
11
264.26266
21
-143.81763
31
-155.09943
0
LINE
8
0
10
264.26266
20
-143.81763
30
-155.09943
11
-757.64734
21
-438.81757
31
-666.0544
0
LINE
8
0
10
-797.64734
20
-322.77017
30
-653.0544
11
-797.64734
21
-404.17657
31
-606.0544
0
LINE
8
0
10
-797.64734
20
-404.17657
30
-606.0544
11
224.26266
21
-109.1766
31
-95.09943
0
LINE
8
0
10
224.26266
20
-109.1766
30
-95.09943
11
224.26266
21
-27.770218
31
-142.09943
0
LINE
8
0
10
224.26266
20
-27.770218
30
-142.09943
11
-797.64734
21
-322.77017
31
-653.0544
0
LINE
8
0
10
-757.64734
20
-438.81757
30
-666.0544
11
264.26266
21
-143.81763
31
-155.09943
0
LINE
8
0
10
264.26266
20
-143.81763
30
-155.09943
11
224.26266
21
-109.1766
31
-95.09943
0
LINE
8
0
10
224.26266
20
-109.1766
30
-95.09943
11
-797.64734
21
-404.17657
31
-606.0544
0
LINE
8
0
10
-797.64734
20
-404.17657
30
-606.0544
11
-757.64734
21
-438.81757
31
-666.0544
0
LINE
8
0
10
-797.64734
20
-322.77017
30
-653.0544
11
224.26266
21
-27.770218
31
-142.09943
0
LINE
8
0
10
224.26266
20
-27.770218
30
-142.09943
11
264.26266
21
-62.411224
31
-202.09943
0
LINE
8
0
10
264.26266
20
-62.411224
30
-202.09943
11
-757.64734
21
-357.4112
31
-713.0544
0
LINE
8
0
10
-757.64734
20
-357.4112
30
-713.0544
11
-797.64734
21
-322.77017
31
-653.0544
0
ENDSEC
0
EOF
